<svg width="662" height="124" viewBox="0 0 662 124" fill="none" xmlns="http://www.w3.org/2000/svg">
<g clip-path="url(#clip0_161_2477)">
<path d="M156.646 97.8337C153.053 97.7586 149.971 96.4223 147.4 93.8165C144.83 91.2107 143.54 88.1038 143.54 84.4791V28.1959C143.54 25.3146 144.084 22.834 145.181 20.7461C146.27 18.6581 147.802 17.0713 149.762 15.9772C151.722 14.8914 154.092 14.3402 156.872 14.3402H181.812C187.037 14.3402 191.643 15.142 195.646 16.7539C199.649 18.3658 202.924 20.6876 205.478 23.7361C208.032 26.7845 209.808 30.4677 210.813 34.7856C211.407 37.4415 211.7 39.8301 211.7 41.9347C211.7 49.5099 209.129 55.5483 203.979 60.0499L203.535 60.551L200.922 62.5972L199.314 63.8166L208.979 76.6117C210.871 79.0838 211.809 81.8566 211.809 84.9217C211.809 86.9512 211.34 88.9056 210.394 90.7681C209.448 92.6305 208.066 94.2341 206.257 95.562C203.887 97.2574 201.383 98.1093 198.753 98.1093C194.013 98.1093 189.993 95.5954 186.702 90.576L169.702 65.4202V84.8132C169.702 87.2519 169.116 89.4485 167.952 91.4028C166.788 93.3571 165.222 94.9189 163.254 96.0882C161.286 97.2574 159.091 97.8337 156.646 97.8337ZM169.811 47.138H180.756C182.054 47.138 183.151 46.6285 184.064 45.6179C184.969 44.599 185.421 43.2961 185.421 41.7092C185.387 40.4565 184.935 39.4041 184.089 38.5522C183.235 37.7004 182.272 37.2744 181.2 37.2744H169.811V47.138ZM220.803 94.0086C218.207 91.4278 216.918 88.2458 216.918 84.4791V26.6926C216.918 23.0011 218.207 19.8858 220.778 17.3552C223.349 14.8246 226.473 13.5635 230.141 13.5635C232.478 13.5635 234.647 14.1481 236.665 15.309C238.683 16.4699 240.274 18.0735 241.447 20.103C242.611 22.1325 243.197 24.3708 243.197 26.8095V84.7046C243.197 86.4418 242.87 88.1289 242.226 89.7742C241.581 91.4195 240.626 92.8727 239.361 94.1255C236.765 96.5976 233.692 97.8337 230.141 97.8337C226.364 97.8337 223.249 96.5559 220.812 94.0086H220.803ZM299.742 74.2314C303.67 73.4964 306.442 72.0014 308.075 69.7464H301.241C297.983 69.7464 295.228 68.6022 292.992 66.3138C290.748 64.0254 289.634 61.2693 289.634 58.0622C289.709 55.9241 290.245 53.9865 291.242 52.2743C292.238 50.5539 293.62 49.1842 295.379 48.1485C297.138 47.1129 299.055 46.5951 301.132 46.5951H323.182C331.289 46.5951 335.351 51.0466 335.351 59.9497C335.351 62.5388 335.091 65.1947 334.572 67.9257C334.053 71.3583 332.771 74.9079 330.736 78.566C328.475 82.5916 325.594 86.0576 322.094 88.9557C318.593 91.8538 314.573 94.0587 310.043 95.5787C305.504 97.0904 300.512 97.8504 295.069 97.8504C291.962 97.8504 288.512 97.5581 284.735 96.9651C279.551 96.0798 274.853 94.5347 270.649 92.3382C266.445 90.1417 262.768 87.302 259.62 83.836C256.471 80.3616 253.95 76.4112 252.066 71.9764C249.88 66.7314 248.791 61.4113 248.791 56.0243C248.791 48.9336 250.6 42.2187 254.21 35.888C257.819 29.5573 262.919 24.3207 269.51 20.1782C276.695 15.7099 284.877 13.4716 294.064 13.4716C295.253 13.4716 296.953 13.5468 299.173 13.6888C303.134 14.0228 307.003 14.7829 310.78 15.9605C314.406 17.1464 317.814 18.6915 321.005 20.6125C327.487 24.8636 330.728 29.407 330.728 34.2427C330.728 37.1241 329.396 39.7299 326.725 42.0517C324.832 43.7137 322.554 44.5489 319.891 44.5489C317.932 44.5489 315.838 44.0895 313.61 43.1625H313.501L308.72 40.6653C307.681 40.0723 306.885 39.6714 306.333 39.4459C301.702 37.3078 297.389 36.2304 293.386 36.2304C290.161 36.2304 287.272 36.8652 284.718 38.143C282.164 39.4208 280.037 41.2917 278.328 43.7638C276.628 46.236 275.498 49.1006 274.937 52.3495C274.71 53.3851 274.602 54.3957 274.602 55.3979C274.602 56.6925 274.71 57.9453 274.937 59.1646C275.607 62.4553 276.787 65.2698 278.496 67.6167C280.196 69.9636 282.356 71.7759 284.969 73.0454C287.582 74.3232 290.53 74.958 293.83 74.958C295.831 74.958 297.791 74.7158 299.717 74.2397L299.742 74.2314ZM344.797 94.0086C342.201 91.4278 340.911 88.2458 340.911 84.4791V26.6926C340.911 23.0011 342.201 19.8858 344.772 17.3552C347.343 14.8246 350.467 13.5635 354.135 13.5635C356.471 13.5635 358.64 14.1481 360.658 15.309C362.677 16.4699 364.268 18.0735 365.44 20.103C366.604 22.1325 367.191 24.3708 367.191 26.8095V84.7046C367.191 86.4418 366.864 88.1289 366.219 89.7742C365.574 91.4195 364.62 92.8727 363.355 94.1255C360.759 96.5976 357.686 97.8337 354.135 97.8337C350.358 97.8337 347.242 96.5559 344.805 94.0086H344.797ZM377.793 93.6745C375.13 90.5008 373.79 87.0097 373.79 83.2013V26.8095C373.79 24.0033 374.543 21.4727 376.043 19.2177C377.542 16.9627 379.535 15.3424 382.014 14.3402C383.605 13.6721 385.196 13.3463 386.787 13.3463C390.748 13.3463 394.508 15.4176 398.068 19.5518L426.951 53.7359V26.8095C426.951 23.1514 428.266 20.0111 430.896 17.3886C433.492 14.8413 436.565 13.5635 440.116 13.5635C441.892 13.5635 443.592 13.8892 445.2 14.5323C446.807 15.1754 448.189 16.1275 449.337 17.3886C450.517 18.5328 451.464 19.9443 452.167 21.6314C452.871 23.3101 453.222 25.0389 453.222 26.8095V84.596C453.222 85.1472 453.147 86.0158 452.996 87.2018C452.628 89.2313 451.799 91.052 450.526 92.6556C449.244 94.2591 447.704 95.5119 445.886 96.3972C444.069 97.2825 442.109 97.7251 439.999 97.7251C437.478 97.7251 435.2 97.0988 433.165 95.8376C431.683 94.8438 430.594 93.8833 429.891 92.9562L400.061 56.4503V84.4875C400.061 88.2876 398.779 91.4696 396.225 94.0169C393.746 96.4891 390.74 97.7251 387.223 97.7251C383.404 97.7251 380.263 96.3805 377.776 93.6828L377.793 93.6745ZM462.677 96.9401C460.123 95.8293 458.147 94.2925 456.765 92.3131C455.375 90.3337 454.68 88.0537 454.68 85.473C454.68 83.552 455.182 81.2052 456.179 78.4407L475.733 28.079C477.551 23.4604 480.189 19.9109 483.647 17.4137C487.106 14.9248 491.067 13.6721 495.506 13.6721C499.944 13.6721 503.955 14.9165 507.423 17.4137C510.881 19.9109 513.528 23.4604 515.336 28.079L534.891 78.4407C535.888 81.3555 536.39 83.7024 536.39 85.473C536.39 88.062 535.695 90.3421 534.305 92.3131C532.915 94.2925 530.947 95.8293 528.392 96.9401C526.617 97.7168 524.8 98.101 522.949 98.101C520.319 98.101 517.882 97.2658 515.646 95.6121C513.402 93.9501 511.752 91.645 510.672 88.6884L509.391 84.9217H481.78L480.389 88.6884C479.393 91.5698 477.768 93.8582 475.532 95.562C473.288 97.2574 470.817 98.1093 468.112 98.1093C466.262 98.1093 464.444 97.7252 462.669 96.9484L462.677 96.9401ZM489.401 62.0961H501.678L495.514 40.1057L489.401 62.0961ZM551.615 96.8315C547.687 96.8315 544.413 95.4952 541.783 92.8142C539.154 90.1333 537.839 86.709 537.839 82.5415V26.6926C537.839 24.9554 538.182 23.26 538.869 21.598C539.556 19.936 540.51 18.4994 541.733 17.2801C544.287 14.7328 547.403 13.4549 551.062 13.4549C552.838 13.4549 554.538 13.7806 556.146 14.4237C557.754 15.0668 559.135 16.0189 560.283 17.2801C562.946 19.936 564.286 23.118 564.286 26.8095V74.0142H583.505C585.582 74.0142 587.458 74.5237 589.141 75.5343C590.825 76.5532 592.156 77.9647 593.144 79.7687C594.124 81.581 594.618 83.5186 594.618 85.5815C594.585 88.7218 593.479 91.3777 591.31 93.5576C589.141 95.7374 586.545 96.8231 583.505 96.8231H551.615V96.8315ZM601.837 92.9562C598.948 91.1856 596.98 89.4317 595.925 87.6946C594.87 85.9574 594.342 83.7441 594.342 81.0465C594.451 78.5743 595.079 76.4697 596.226 74.7325C598.37 71.5588 601.075 69.9636 604.341 69.9636C605.673 69.9636 607.004 70.1139 608.344 70.4062L613.344 71.7342L617.9 72.8951L621.174 73.6718L622.397 74.0059C623.209 74.1144 623.862 74.223 624.34 74.34C625.855 74.5989 627.187 74.7241 628.343 74.7241C629.498 74.7241 630.579 74.5571 631.508 74.223C632.84 73.8138 633.753 73.4129 634.23 73.0037C634.934 72.4524 635.285 71.801 635.285 71.066C635.285 70.2559 634.9 69.6044 634.121 69.1284C633.97 69.0532 633.677 68.9447 633.233 68.7943L631.064 68.0176L629.624 67.5749L623.569 66.08L622.405 65.8545L614.902 63.6913C610.79 62.5805 607.306 61.144 604.458 59.3734C601.385 57.3773 599.007 54.8133 597.323 51.673C595.64 48.5327 594.794 45.1001 594.794 41.3668C594.794 38.3769 595.355 35.4036 596.486 32.447C597.616 29.4905 599.291 26.8179 601.511 24.4125C603.99 21.6815 607.155 19.3931 611.007 17.539C614.86 15.6932 619.231 14.4738 624.114 13.8809C626.04 13.6554 628.024 13.5468 630.059 13.5468C634.28 13.5468 638.334 14.098 642.228 15.2088C646.524 16.5033 649.715 17.9482 651.808 19.5601C653.902 21.1637 655.3 23.1681 656.004 25.5735C656.372 27.0517 656.557 28.3797 656.557 29.5656C656.557 31.9292 655.945 33.9587 654.723 35.6625C653.609 37.2911 652.344 38.4854 650.92 39.2621C649.497 40.0389 647.797 40.4231 645.837 40.4231C643.76 40.4231 641.407 40.0556 638.786 39.3123L637.898 38.9782L634.624 37.9259L633.233 37.5918L630.068 36.8151L628.46 36.4309L627.346 36.2054C627.12 36.172 626.911 36.1386 626.71 36.1219C626.509 36.1051 626.216 36.0968 625.847 36.0968C623.737 36.0968 622.288 36.4142 621.517 37.0406C620.847 37.5918 620.521 38.2432 620.521 38.9782C620.521 39.4626 620.747 39.8635 621.191 40.1976C621.601 40.4899 622.213 40.7488 623.025 40.9743L625.194 41.584L625.973 41.8095L628.251 42.3607L632.028 43.246L639.531 45.4091C643.459 46.5533 646.75 47.8145 649.421 49.1758C651.456 50.2114 653.265 51.4559 654.84 52.9174C656.414 54.379 657.746 56.0076 658.843 57.82C659.931 59.6323 660.744 61.4948 661.263 63.4157C661.782 65.3366 662.042 67.3494 662.042 69.4541C662.042 75.4758 659.915 80.9964 655.652 86.0158C649.137 93.8833 639.506 97.817 626.768 97.817C625.805 97.817 624.172 97.7419 621.878 97.5915C612.875 97.0737 606.209 95.5203 601.879 92.9395L601.837 92.9562ZM122.721 5.90484C123.173 5.98836 123.575 6.21386 123.918 6.61475C128.851 12.3775 129.487 28.5217 129.211 36.3724C131.38 42.5277 132.435 49.702 132.343 57.8617C132.268 64.2008 131.531 69.9218 130.141 75.0164C129.445 78.1985 128.491 81.3221 127.218 84.3371C123.751 92.6556 118.014 100.08 110.753 105.568C107.094 108.265 103.049 110.47 98.8365 112.149C94.5989 113.828 90.2023 115.022 85.7303 115.64C81.2499 116.291 76.736 116.483 72.264 116.358L68.9226 116.133C68.3615 116.099 67.8087 116.041 67.256 115.974L65.5895 115.773C63.3535 115.556 61.1761 115.105 58.982 114.746C58.982 114.746 58.9652 114.746 58.9569 114.746C58.5298 114.671 58.245 114.262 58.3288 113.828C58.3623 113.594 58.5297 113.393 58.6972 113.268L59.3002 112.959C61.7372 111.506 63.9983 110.52 66.1925 109.409L68.4536 108.34L72.4399 106.453C73.8133 105.768 75.1449 105.167 76.4345 104.54C74.5084 104.357 72.666 104.106 70.8906 103.789C62.5747 102.302 55.8331 99.3538 50.4734 94.8772C40.8176 86.7926 36.0106 73.9892 36.2032 56.776C36.2953 48.5828 37.518 41.4253 39.8377 35.3117C39.7456 27.4526 34.8884 12.8536 39.9382 7.21608C40.6919 6.37254 42.1324 6.22221 43.9078 6.53958C48.6394 7.38312 55.7661 11.5173 58.8061 14.4905C65.8156 11.1916 74.3912 9.61306 84.8175 9.72999C89.4151 9.7801 93.6442 10.1559 97.53 10.8491C102.463 11.7344 106.851 13.1375 110.728 15.0752C114.438 11.5925 119.647 5.35362 122.712 5.90484M120.066 0.133706C114.371 -0.801702 109.816 3.44939 105.461 7.94269C102.295 6.81519 98.8951 5.95495 95.294 5.36197C91.0816 4.66876 86.4589 4.32634 81.5514 4.33469C72.0965 4.35975 64.0318 5.66263 57.0475 8.29347C52.7346 5.37032 46.9477 2.5975 42.3585 1.83748C36.714 0.910429 33.5317 3.00674 31.8568 4.92767C26.2124 11.4087 27.904 21.3307 29.3863 30.0918C29.7799 32.4053 30.1568 34.6102 30.3075 36.3474C28.1469 42.8702 27.0666 50.3367 27.0917 58.5883C27.1419 77.7976 32.9455 92.2296 44.3349 101.5C47.266 103.88 50.5488 105.877 54.175 107.497L53.8902 107.647C53.5804 107.806 53.2873 107.99 53.0109 108.198C51.2774 109.459 50.1133 111.364 49.7951 113.435C49.4685 115.498 49.9542 117.561 51.1685 119.273C52.4079 121.01 54.2504 122.154 56.3607 122.505C56.411 122.513 56.4696 122.522 56.5199 122.53C57.1228 122.622 57.7258 122.714 58.3288 122.814C59.9367 123.073 61.6032 123.34 63.3954 123.491L64.953 123.658C65.623 123.733 66.3181 123.783 67.0048 123.825L70.296 124C70.3881 124 70.4802 124 70.564 124.008C75.6306 124.084 80.5046 123.758 85.052 123.031C89.9259 122.288 94.8083 120.91 99.5651 118.947C104.38 116.951 108.836 114.404 112.83 111.372C112.855 111.355 112.872 111.339 112.897 111.322C121.004 105.025 127.293 96.6728 131.095 87.1768C132.385 83.978 133.423 80.5203 134.185 76.8873C135.609 71.2915 136.321 65.036 136.304 58.3044C136.279 50.0277 135.149 42.5277 132.929 35.9715C132.946 32.7978 132.829 26.9348 131.941 20.721C130.76 12.4945 128.65 6.75673 125.501 3.17378C124.061 1.53682 122.185 0.492836 120.083 0.142058L120.066 0.133706ZM123.173 53.8111C122.679 40.0305 119.161 30.8351 112.462 25.7154C106.792 21.3975 98.267 19.485 86.4338 19.9025C74.6005 20.3285 66.2343 22.8257 60.8914 27.5529C54.5602 33.1319 51.7296 42.5611 52.2237 56.3333C53.2705 85.5231 67.6664 91.0019 88.9629 90.2419C110.259 89.4819 124.22 83.0008 123.173 53.8027V53.8111ZM79.4243 69.2704C74.8434 69.4374 70.966 65.8545 70.8068 61.3278L70.2122 44.8328C70.0531 40.2978 73.6626 36.4643 78.2351 36.2972C80.4125 36.2221 82.4223 36.9904 83.9549 38.3017C81.2918 39.2287 79.4243 41.8011 79.5247 44.7493C79.6587 48.3907 82.7322 51.222 86.4086 51.0967C86.6431 51.0967 86.8776 51.0717 87.0954 51.0383L87.4471 60.7264C87.6062 65.2615 83.9968 69.095 79.4243 69.262V69.2704ZM103.786 68.1429C99.205 68.3099 95.3275 64.727 95.1684 60.2003L94.5738 43.7053C94.4147 39.1703 98.0241 35.3368 102.597 35.1697C104.498 35.1029 106.265 35.6792 107.713 36.7065C105.201 37.7171 103.459 40.1976 103.56 43.0455C103.694 46.687 106.767 49.5182 110.444 49.393C110.779 49.3846 111.105 49.3345 111.432 49.276L111.8 59.6156C111.959 64.1507 108.35 67.9842 103.777 68.1512L103.786 68.1429ZM0 121.578L0.55272 122.255C1.74191 121.67 3.48381 120.734 4.66463 120.108C7.95583 118.329 11.4396 116.341 14.6303 114.37C15.7777 113.652 17.3688 112.625 18.5664 112.007C20.6181 110.98 22.6699 109.885 24.1606 108.098C26.2877 105.651 28.0631 102.594 28.708 99.3287L28.1552 98.6522C27.6611 98.6438 27.1838 98.6522 26.7316 98.7023C23.8759 98.9696 21.0536 99.9634 18.6334 101.341C16.5732 102.436 15.0909 104.231 13.6756 106.027C12.8298 107.071 11.515 108.424 10.5687 109.401C6.92576 113.276 3.31632 117.419 0.0167491 121.578H0ZM22.2847 122.539L22.5945 123.424C24.1941 122.898 25.7434 122.238 27.2843 121.545C28.306 121.085 29.6962 120.409 30.7011 119.849L31.8149 119.223C32.9204 118.546 34.1849 118.471 35.2401 117.561C36.3372 116.542 37.0741 115.097 37.7609 113.335C38.2131 112.09 38.6151 110.704 38.8412 108.825L38.5313 107.939C37.4007 107.28 36.4544 107.104 35.55 107.079C33.8834 107.104 32.2672 107.555 31.0445 109.476C30.475 110.353 29.9307 111.347 29.3109 112.14L28.3981 113.335C26.2542 116.224 24.2108 119.273 22.2931 122.53L22.2847 122.539Z" fill="url(#paint0_linear_161_2477)"/>
</g>
<defs>
<linearGradient id="paint0_linear_161_2477" x1="35.1065" y1="46.1498" x2="662.007" y2="44.8576" gradientUnits="userSpaceOnUse">
<stop stop-color="#DEE1FF"/>
<stop offset="0.197917" stop-color="#FEFFFF"/>
<stop offset="0.489583" stop-color="#DDF3FF"/>
<stop offset="0.75" stop-color="#F7FFE8"/>
<stop offset="1" stop-color="#BBB5FF"/>
</linearGradient>
<clipPath id="clip0_161_2477">
<rect width="662" height="124" fill="white"/>
</clipPath>
</defs>
</svg>
