<svg width="2081" height="2362" viewBox="0 0 2081 2362" fill="none" xmlns="http://www.w3.org/2000/svg">
<g clip-path="url(#clip0_3204_38)">
<path d="M2081 224.644H0V1867.52H2081V224.644Z" fill="#6842FF"/>
<path d="M2081 664.688H2074.2L2000.34 678.763L1036.62 862.535L72.937 678.763L0 664.864V834.536L72.937 848.435L1036.62 1032.21L2000.34 848.435L2081 833.058V664.688Z" fill="#7451FF"/>
<path d="M2081 502.555H2074.2L2000.34 516.629L1036.62 700.401L72.937 516.629L0 502.73V672.402L72.937 686.326L1036.62 870.073L2000.34 686.326L2081 670.95V502.555Z" fill="#8464FF"/>
<path d="M2081 338.092H2074.2L2000.34 352.191L1036.62 535.938L72.937 352.191L0 338.267V507.939L72.937 521.864L1036.62 705.635L2000.34 521.864L2081 506.487V338.092Z" fill="#957AFF"/>
<path d="M2081 0H2074.2L2000.34 14.0746L1036.62 197.846L72.937 14.0746L0 0.175307V169.847L72.937 183.747L1036.62 367.518L2000.34 183.747L2081 168.37V0Z" fill="#C5B7FB"/>
<path d="M2081 168.445H2074.2L2000.34 182.545L1036.62 366.317L72.937 182.545L0 168.621V338.318L72.937 352.217L1036.62 535.989L2000.34 352.217L2081 336.84V168.445Z" fill="#A790FF"/>
</g>
<rect y="1828.97" width="2081" height="533.029" fill="#6842FF"/>
<defs>
<clipPath id="clip0_3204_38">
<rect width="2081" height="1867.52" fill="white"/>
</clipPath>
</defs>
</svg>
